<svg width="368" height="54" viewBox="0 0 368 54" fill="none" xmlns="http://www.w3.org/2000/svg">
<path d="M23.3034 0L4.66849 12.9227V27.0846L14.1585 33.4575L23.3034 27.0846L11.7428 19.2956L23.3034 11.3295L45.9068 27.0846V15.9321L23.3034 0Z" fill="#E84E10"/>
<path fill-rule="evenodd" clip-rule="evenodd" d="M23.3034 11.3295L45.9068 27.0846V15.9321L23.3034 0L4.66849 12.9227V27.0846L14.1585 33.4575L23.3034 27.0846L11.7428 19.2956L23.3034 11.3295ZM22.6821 27.0896L11.1191 19.2989L23.3045 10.9023L45.5617 26.4161V16.1184L23.3018 0.428436L5.01358 13.1108V26.8932L14.1549 33.0319L22.6821 27.0896Z" fill="#E84E10"/>
<path d="M23.0299 53.6876L42.0164 40.7648V26.603L32.3473 20.2301L23.0299 26.603L34.8085 34.392L23.0299 42.3581L0 26.603V37.7554L23.0299 53.6876Z" fill="#E84E10"/>
<path fill-rule="evenodd" clip-rule="evenodd" d="M23.0299 42.3581L0 26.603V37.7554L23.0299 53.6876L42.0164 40.7648V26.603L32.3473 20.2301L23.0299 26.603L34.8085 34.392L23.0299 42.3581ZM23.6629 26.598L35.444 34.3887L23.0288 42.7853L0.351601 27.2715V37.5691L23.0315 53.2591L41.6648 40.5768V26.7944L32.3509 20.6556L23.6629 26.598Z" fill="#E84E10"/>
<path d="M259.086 20.2301H259.765C264.478 20.2301 268.438 22.887 268.438 30.6651H261.084C261.084 28.2393 260.368 26.6221 257.464 26.6221H256.861C253.203 26.6221 252.449 28.2393 252.449 31.8203V42.7944H245.095V20.8077H251.695V24.3502C253.316 21.3083 256.107 20.2301 259.086 20.2301Z" fill="#333333"/>
<path d="M206.289 18.5365V21.5685H213.194V26.1112H206.289L206.289 42.7944H198.46L198.46 26.1112H196.854L196.854 21.5685H198.46L198.46 18.5365C198.46 13.2297 201.311 11.7136 209.541 11.7136L213.194 11.6712C213.194 11.6712 213.194 13.2722 213.194 16.7141H211.677C211.677 16.7141 211.869 16.7141 209.541 16.7141C207.092 16.7141 206.289 16.7141 206.289 18.5365Z" fill="#333333"/>
<path d="M186.865 18.5365V21.5685H196.854V26.1112H186.865L186.865 42.7944H178.946L178.946 26.1112H175.068L175.068 21.5685H178.946L178.946 18.5365C178.946 13.2297 181.829 11.7136 190.154 11.7136L193.849 11.6712C193.849 11.6712 193.849 13.2722 193.849 16.7141H192.315C192.315 16.7141 192.509 16.7141 190.154 16.7141C187.677 16.7141 186.865 16.7141 186.865 18.5365Z" fill="#333333"/>
<path d="M174.29 29.5412V33.5209H153.84C154.193 35.736 155.368 36.7122 158.698 36.7122H162.772C166.181 36.7122 166.807 35.4357 166.807 34.835H174.29C174.29 40.4291 170.451 42.7944 162.694 42.7944H157.875C149.844 42.7944 146.279 40.2414 146.279 31.531C146.279 22.8207 149.844 20.2301 157.875 20.2301H162.694C170.412 20.2301 174.29 22.633 174.29 29.5412ZM153.84 29.5412H166.807C166.807 27.5513 165.75 26.2748 161.989 26.2748H158.698C155.368 26.2748 154.193 27.2885 153.84 29.5412Z" fill="#333333"/>
<path d="M243.539 29.5412V33.5209H222.521C222.884 35.736 224.092 36.7122 227.514 36.7122H231.702C235.205 36.7122 235.849 35.4357 235.849 34.835H243.539C243.539 40.4291 239.593 42.7944 231.621 42.7944H226.669C218.414 42.7944 214.75 40.2414 214.75 31.531C214.75 22.8207 218.414 20.2301 226.669 20.2301H231.621C239.553 20.2301 243.539 22.633 243.539 29.5412ZM222.521 29.5412H235.849C235.849 27.5513 234.762 26.2748 230.896 26.2748H227.514C224.092 26.2748 222.884 27.2885 222.521 29.5412Z" fill="#333333"/>
<path d="M132.041 20.0214H132.752C140.061 20.0214 144.723 21.8634 144.723 31.2561V42.7944H137.019V31.2561C137.019 27.4909 136.268 25.7905 132.041 25.7905H129.434C125.206 25.7905 124.416 27.4909 124.416 31.2561V42.7944H116.712V11.6712H124.416V22.3493C126.352 19.9606 128.406 20.0214 132.041 20.0214Z" fill="#333333"/>
<path d="M103.882 42.7944H99.1971C91.3891 42.7944 87.9231 40.2414 87.9231 31.531C87.9231 22.8207 91.3891 20.2301 99.1971 20.2301H103.882C111.385 20.2301 115.156 22.633 115.156 29.0531H107.881C107.881 27.739 106.853 26.4625 103.196 26.4625H99.997C95.9216 26.4625 95.1598 28.0394 95.1598 31.531C95.1598 34.9852 95.9216 36.5245 99.997 36.5245H103.196C106.891 36.5245 107.881 35.248 107.881 33.9339H115.156C115.156 40.4291 111.423 42.7944 103.882 42.7944Z" fill="#333333"/>
<path d="M68.6681 28.7903H74.1266C82.2731 28.7903 86.367 29.5412 86.367 35.2104C86.367 40.0912 82.2731 42.7944 74.1266 42.7944H69.0402C60.8938 42.7944 56.7999 40.767 56.7999 35.0978H64.6982C64.6982 36.1866 65.4012 37.0877 68.1305 37.0877H74.5815C77.3935 37.0877 78.51 36.6371 78.51 35.5859C78.51 34.6097 77.3935 34.2718 74.5815 34.2718H69.4538C61.3073 34.2718 57.2134 33.1079 57.2134 27.4387C57.2134 22.5203 61.3073 20.2301 69.4538 20.2301H73.7131C81.8595 20.2301 85.9534 21.8821 85.9534 27.9268H78.0551C78.0551 26.838 77.3521 25.9369 74.6228 25.9369H68.6681C65.8561 25.9369 65.1531 26.5751 65.1531 27.4387C65.1531 28.3022 65.8561 28.7903 68.6681 28.7903Z" fill="#333333"/>
<path d="M273.396 15.7839C273.732 15.8595 273.884 16.0596 273.884 16.4553V17.1178H273.031V16.4998C273.031 16.2597 272.955 16.1885 272.767 16.1885H271.613V17.1178H270.772V14.0055H272.891C273.552 14.0055 273.844 14.2634 273.844 15.0325C273.844 15.4772 273.704 15.6906 273.396 15.7839ZM272.687 14.8102H271.613V15.4327H272.687C272.915 15.4327 272.991 15.3616 272.991 15.1215C272.991 14.8814 272.915 14.8102 272.687 14.8102Z" fill="black"/>
<path fill-rule="evenodd" clip-rule="evenodd" d="M272.328 18.6739C274.047 18.6739 275.441 17.2805 275.441 15.5616C275.441 13.8427 274.047 12.4493 272.328 12.4493C270.609 12.4493 269.216 13.8427 269.216 15.5616C269.216 17.2805 270.609 18.6739 272.328 18.6739ZM272.328 19.452C274.477 19.452 276.219 17.7102 276.219 15.5616C276.219 13.413 274.477 11.6712 272.328 11.6712C270.18 11.6712 268.438 13.413 268.438 15.5616C268.438 17.7102 270.18 19.452 272.328 19.452Z" fill="black"/>
<path fill-rule="evenodd" clip-rule="evenodd" d="M283.221 11.6712V42.0164V42.0164V11.6712V11.6712Z" fill="black" stroke="black"/>
<path d="M363.818 29.4207H364.785C367.015 29.4207 368 30.1998 368 32.6896C368 35.1794 367.015 35.9586 364.785 35.9586H363.818C361.587 35.9586 360.602 35.1794 360.602 32.6896C360.602 30.1998 361.587 29.4207 363.818 29.4207ZM363.818 35.1167H364.785C366.522 35.1167 367.078 34.4987 367.078 32.6896C367.078 30.8805 366.522 30.2625 364.785 30.2625H363.818C362.08 30.2625 361.525 30.8805 361.525 32.6896C361.525 34.4987 362.08 35.1167 363.818 35.1167Z" fill="black"/>
<path d="M360.497 35.8243H359.503L358.957 34.6331H354.327L353.762 35.8243H352.768L355.742 29.5551H357.614L360.497 35.8243ZM356.378 30.2895L354.667 33.9077H358.626L356.978 30.2895H356.378Z" fill="black"/>
<path d="M351.8 33.3344H352.722C352.713 35.2421 351.656 35.9586 349.543 35.9586H348.45C346.247 35.9586 345.271 35.1794 345.271 32.6896C345.271 30.1998 346.247 29.4207 348.45 29.4207H349.543C351.656 29.4207 352.713 30.1371 352.713 32.0269H351.791C351.8 30.7999 351.128 30.2625 349.543 30.2625H348.45C346.766 30.2625 346.184 30.8626 346.184 32.6896C346.184 34.5166 346.766 35.1167 348.45 35.1167H349.543C351.137 35.1167 351.8 34.5704 351.8 33.3344Z" fill="black"/>
<path d="M345.166 35.8243H344.172L343.625 34.6331H338.995L338.431 35.8243H337.437L340.41 29.5551H342.282L345.166 35.8243ZM341.046 30.2895L339.335 33.9077H343.294L341.646 30.2895H341.046Z" fill="black"/>
<path d="M336.976 29.5551V35.8243H336.053L336.089 30.0118L333.313 35.8243H332.023L329.247 30.0118L329.291 35.8243H328.369V29.5551H329.9L332.695 35.3855L335.48 29.5551H336.976Z" fill="black"/>
<path d="M323.276 29.4207H324.243C326.473 29.4207 327.458 30.1998 327.458 32.6896C327.458 35.1794 326.473 35.9586 324.243 35.9586H323.276C321.046 35.9586 320.06 35.1794 320.06 32.6896C320.06 30.1998 321.046 29.4207 323.276 29.4207ZM323.276 35.1167H324.243C325.98 35.1167 326.536 34.4987 326.536 32.6896C326.536 30.8805 325.98 30.2625 324.243 30.2625H323.276C321.538 30.2625 320.983 30.8805 320.983 32.6896C320.983 34.4987 321.538 35.1167 323.276 35.1167Z" fill="black"/>
<path d="M313.971 29.5551H319.793V30.3163H317.357V35.8243H316.407V30.3163H313.971V29.5551Z" fill="black"/>
<path d="M310.298 35.9586H309.492C307.432 35.9586 306.456 35.1795 306.456 32.6897V29.5551H307.396V32.6897C307.396 34.5167 307.996 35.1168 309.528 35.1168H310.271C311.803 35.1168 312.394 34.5167 312.394 32.6897V29.5551H313.343V32.6897C313.343 35.1795 312.367 35.9586 310.298 35.9586Z" fill="black"/>
<path d="M306.172 35.8243H305.178L304.632 34.6331H300.001L299.437 35.8243H298.443L301.416 29.5551H303.288L306.172 35.8243ZM302.052 30.2895L300.342 33.9077H304.3L302.652 30.2895H302.052Z" fill="black"/>
<path d="M295.938 29.5551V30.3969H290.976V32.3225H295.132V33.0479H290.976V34.9824H296.027V35.8243H290.036V29.5551H295.938Z" fill="black"/>
<path d="M342.601 26.8682H341.607L341.061 25.6771H336.431L335.866 26.8682H334.872L337.846 20.599H339.718L342.601 26.8682ZM338.482 21.3334L336.771 24.9517H340.73L339.082 21.3334H338.482Z" fill="black"/>
<path d="M334.262 24.3784H335.184C335.175 26.286 334.119 27.0025 332.005 27.0025H330.912C328.709 27.0025 327.733 26.2233 327.733 23.7336C327.733 21.2438 328.709 20.4646 330.912 20.4646H332.005C334.119 20.4646 335.175 21.1811 335.175 23.0708H334.253C334.262 21.8438 333.59 21.3065 332.005 21.3065H330.912C329.229 21.3065 328.646 21.9065 328.646 23.7336C328.646 25.5606 329.229 26.1606 330.912 26.1606H332.005C333.599 26.1606 334.262 25.6143 334.262 24.3784Z" fill="black"/>
<path d="M327.177 26.8682H326.237V20.599H327.177V26.8682Z" fill="black"/>
<path d="M320.134 20.599H325.956V21.3603H323.52V26.8682H322.57V21.3603H320.134V20.599Z" fill="black"/>
<path d="M315.466 23.3484H316.926C319.112 23.3484 320.043 23.8321 320.043 25.1038C320.043 26.295 319.156 27.0025 316.864 27.0025H315.717C313.514 27.0025 312.457 26.286 312.457 24.7545H313.371C313.371 25.686 314.042 26.2144 315.583 26.2144H317.079C318.547 26.2144 319.103 25.8293 319.103 25.1217C319.103 24.4232 318.583 24.1366 317.186 24.1366H315.637C313.344 24.1276 312.547 23.635 312.547 22.3902C312.547 20.9214 313.872 20.4646 315.726 20.4646H316.693C318.897 20.4646 319.953 21.1811 319.953 22.7126H319.031C319.031 21.7991 318.359 21.2527 316.864 21.2527H315.556C314.257 21.2527 313.46 21.5572 313.46 22.3812C313.46 23.0619 313.926 23.3484 315.466 23.3484Z" fill="black"/>
<path d="M311.902 26.8682H310.961V20.599H311.902V26.8682Z" fill="black"/>
<path d="M306.446 23.6888H310.404V26.8682H309.724L309.625 25.4173C309.285 26.5995 308.407 27.0025 306.894 27.0025H305.998C303.795 27.0025 302.819 26.2233 302.819 23.7336C302.819 21.2438 303.795 20.4646 305.998 20.4646H307.324C309.339 20.4646 310.395 21.1811 310.395 22.8917H309.482C309.491 21.8349 308.819 21.3065 307.324 21.3065H305.998C304.314 21.3065 303.732 21.9065 303.732 23.7336C303.732 25.5606 304.314 26.1606 305.998 26.1606H307.324C308.703 26.1606 309.383 25.7039 309.482 24.3336H306.446V23.6888Z" fill="black"/>
<path d="M298.263 20.4646H299.23C301.46 20.4646 302.445 21.2438 302.445 23.7336C302.445 26.2233 301.46 27.0025 299.23 27.0025H298.263C296.033 27.0025 295.048 26.2233 295.048 23.7336C295.048 21.2438 296.033 20.4646 298.263 20.4646ZM298.263 26.1606H299.23C300.967 26.1606 301.523 25.5427 301.523 23.7336C301.523 21.9244 300.967 21.3065 299.23 21.3065H298.263C296.525 21.3065 295.97 21.9244 295.97 23.7336C295.97 25.5427 296.525 26.1606 298.263 26.1606Z" fill="black"/>
<path d="M290.036 20.599H290.976V26.0264H294.863V26.8682H290.036V20.599Z" fill="black"/>
<path d="M357.061 29.5671C356.896 29.5671 356.751 29.5175 356.627 29.4184C356.507 29.3127 356.397 29.1937 356.295 29.0616C356.194 28.9294 356.095 28.8138 355.999 28.7147C355.902 28.6155 355.794 28.566 355.674 28.566C355.513 28.566 355.384 28.6519 355.288 28.8237C355.196 28.9889 355.145 29.2169 355.136 29.5076H354.805C354.814 29.012 354.897 28.6387 355.053 28.3876C355.214 28.1365 355.417 28.0109 355.661 28.0109C355.826 28.0109 355.969 28.0638 356.088 28.1695C356.213 28.2686 356.323 28.3843 356.42 28.5164C356.521 28.6486 356.62 28.7675 356.716 28.8732C356.818 28.9724 356.928 29.0219 357.048 29.0219C357.209 29.0219 357.337 28.936 357.434 28.7642C357.531 28.5858 357.581 28.3545 357.586 28.0704H357.917C357.908 28.566 357.825 28.9393 357.669 29.1904C357.512 29.4415 357.31 29.5671 357.061 29.5671Z" fill="black"/>
<path fill-rule="evenodd" clip-rule="evenodd" d="M356.528 29.4258C356.412 29.3382 356.305 29.2393 356.207 29.1292C356.118 29.0305 356.033 28.945 355.95 28.8725C355.887 28.8167 355.818 28.7894 355.738 28.7894C355.633 28.7894 355.557 28.8345 355.498 28.9247C355.439 29.0154 355.399 29.1527 355.391 29.3551L355.385 29.5209H354.805L354.809 29.3426C354.817 28.9353 354.897 28.5987 355.07 28.3614L355.071 28.3595C355.245 28.1277 355.466 28.0109 355.726 28.0109C355.896 28.0109 356.051 28.0574 356.185 28.1578C356.306 28.2407 356.414 28.338 356.51 28.4501C356.598 28.548 356.683 28.6357 356.766 28.7134C356.834 28.7696 356.905 28.7963 356.984 28.7963C357.089 28.7963 357.164 28.7515 357.224 28.6619C357.288 28.5596 357.327 28.4191 357.331 28.2267L357.334 28.0571H357.917L357.913 28.2354C357.904 28.6426 357.825 28.9793 357.652 29.2166C357.482 29.4509 357.259 29.5671 356.996 29.5671C356.826 29.5671 356.67 29.5233 356.533 29.4297L356.528 29.4258ZM357.334 28.7697C357.247 28.9032 357.13 28.9699 356.984 28.9699C356.875 28.9699 356.775 28.9314 356.683 28.8544C356.596 28.7723 356.506 28.6799 356.414 28.5772C356.327 28.4746 356.226 28.3847 356.114 28.3077C356.005 28.2256 355.876 28.1845 355.726 28.1845C355.505 28.1845 355.321 28.2821 355.175 28.4771C355.055 28.6417 354.983 28.8739 354.959 29.1736C354.954 29.2292 354.951 29.287 354.95 29.3472H355.25C355.258 29.1214 355.304 28.9443 355.388 28.8159C355.475 28.6825 355.592 28.6157 355.738 28.6157C355.847 28.6157 355.945 28.6542 356.032 28.7312C356.12 28.8082 356.21 28.8981 356.302 29.0007C356.393 29.1034 356.493 29.1958 356.602 29.2779C356.715 29.3549 356.846 29.3934 356.996 29.3934C357.221 29.3934 357.405 29.2959 357.547 29.1008C357.667 28.9363 357.739 28.7041 357.763 28.4044C357.768 28.3488 357.771 28.2909 357.772 28.2307H357.472C357.468 28.4515 357.422 28.6311 357.334 28.7697Z" fill="black"/>
<path d="M348.2 36.5161C348.2 36.3551 348.237 36.2142 348.311 36.0935C348.39 35.9772 348.478 35.8699 348.576 35.7715C348.675 35.6731 348.761 35.5769 348.835 35.483C348.908 35.3891 348.945 35.284 348.945 35.1678C348.945 35.0112 348.478 35.4295 348.35 35.3356C348.227 35.2462 348.018 35.3445 347.802 35.3356L347.802 35.0136C348.171 35.0226 348.449 35.1031 348.635 35.2551C348.822 35.4116 348.916 35.6084 349.358 35.1543C349.358 35.3153 349.319 35.454 349.24 35.5702C349.166 35.691 349.08 35.7983 348.982 35.8922C348.884 35.9906 348.795 36.0868 348.717 36.1807C348.643 36.279 348.606 36.3864 348.606 36.5026C348.606 36.6592 348.67 36.7844 348.798 36.8783C348.93 36.9722 349.103 37.0214 349.314 37.0259L349.314 37.3479C348.945 37.3389 348.667 37.2584 348.481 37.1064C348.294 36.9543 348.2 36.7575 348.2 36.5161Z" fill="black"/>
<path fill-rule="evenodd" clip-rule="evenodd" d="M348.242 36.4392C348.311 36.2987 348.389 36.1686 348.476 36.049C348.532 35.9715 348.583 35.8959 348.628 35.822C348.621 35.8131 348.613 35.8041 348.606 35.7952C348.592 35.8038 348.578 35.8117 348.565 35.8188C348.534 35.8351 348.495 35.8515 348.455 35.8562C348.414 35.8611 348.356 35.8554 348.305 35.8038C348.305 35.8037 348.305 35.8037 348.303 35.803C348.301 35.8021 348.297 35.8007 348.29 35.7998C348.273 35.7978 348.25 35.7995 348.213 35.806C348.2 35.8083 348.185 35.8114 348.169 35.8148C348.105 35.8282 348.017 35.8465 347.933 35.8417L347.802 35.8343L347.802 35.1298L347.943 35.1345C348.222 35.1438 348.46 35.2183 348.64 35.3754C348.682 35.3436 348.73 35.3092 348.771 35.29C348.791 35.2803 348.846 35.2554 348.905 35.2786C348.942 35.2931 348.975 35.3244 348.996 35.3702C349.014 35.4112 349.018 35.4521 349.018 35.4804C349.018 35.4814 349.018 35.4823 349.018 35.4833C349.047 35.4484 349.081 35.4051 349.119 35.3516L349.358 35.0136L349.358 35.4652C349.358 35.6721 349.322 35.8603 349.242 36.0228C349.177 36.1695 349.1 36.3014 349.012 36.4177C348.934 36.5241 348.865 36.6275 348.804 36.7279C348.76 36.8105 348.738 36.8975 348.738 36.9925C348.738 37.1203 348.774 37.2118 348.845 37.2838C348.925 37.3618 349.036 37.4095 349.188 37.4139L349.322 37.4178L349.322 38.1259L349.181 38.1212C348.86 38.1105 348.594 38.0136 348.407 37.8041C348.222 37.5973 348.13 37.3268 348.13 37.0077C348.13 36.8011 348.165 36.612 348.239 36.4458L348.242 36.4392ZM348.759 37.4181C348.654 37.3117 348.601 37.1698 348.601 36.9925C348.601 36.8608 348.632 36.7392 348.693 36.6278C348.757 36.5214 348.83 36.4125 348.911 36.3011C348.992 36.1947 349.063 36.0731 349.124 35.9363C349.152 35.8794 349.174 35.8177 349.19 35.7514C349.211 35.6641 349.221 35.5688 349.221 35.4652C349.163 35.5468 349.113 35.6098 349.068 35.6574C349.038 35.6893 349.011 35.7142 348.985 35.7332C348.918 35.7838 348.866 35.792 348.821 35.7755C348.844 35.7234 348.861 35.6686 348.87 35.6109C348.87 35.6104 348.87 35.6115 348.87 35.6109C348.872 35.6104 348.873 35.6085 348.873 35.6084C348.873 35.6083 348.872 35.6085 348.871 35.6092C348.877 35.5677 348.881 35.5248 348.881 35.4804C348.881 35.4185 348.834 35.436 348.768 35.4804C348.763 35.4842 348.757 35.4883 348.751 35.4924C348.749 35.4939 348.747 35.4953 348.745 35.4968C348.745 35.4971 348.744 35.4975 348.744 35.4978C348.723 35.5125 348.702 35.5289 348.679 35.5458C348.663 35.5583 348.646 35.5711 348.629 35.5835C348.628 35.5821 348.627 35.5807 348.626 35.5794C348.59 35.5397 348.551 35.5043 348.507 35.4732C348.392 35.3905 348.248 35.3383 348.076 35.3165C348.032 35.311 347.987 35.3074 347.939 35.3058L347.939 35.6705C347.955 35.6715 347.971 35.6714 347.987 35.6705C348.017 35.669 348.047 35.6648 348.076 35.6596M348.496 35.6684C348.533 35.6515 348.574 35.6241 348.615 35.5942C348.615 35.5941 348.615 35.5944 348.615 35.5942C348.619 35.5908 348.625 35.587 348.629 35.5835C348.646 35.6026 348.661 35.622 348.676 35.641C348.687 35.6541 348.697 35.6669 348.707 35.6792C348.715 35.6889 348.723 35.6982 348.731 35.7071C348.759 35.7384 348.788 35.7635 348.821 35.7755C348.812 35.7966 348.801 35.8173 348.79 35.8376C348.774 35.865 348.758 35.8925 348.741 35.9203C348.692 36.0002 348.637 36.0816 348.577 36.1643C348.496 36.2757 348.423 36.3973 348.358 36.529C348.298 36.6658 348.267 36.8254 348.267 37.0077C348.267 37.2813 348.344 37.5042 348.498 37.6764C348.628 37.8217 348.811 37.9093 349.048 37.9393C349.092 37.9448 349.137 37.9484 349.185 37.95L349.185 37.5852C349.011 37.5802 348.869 37.5244 348.759 37.4181" fill="black"/>
<path d="M311.232 20.2301L312.77 19.452H313.567L311.83 20.2301H311.232Z" fill="black"/>
<path fill-rule="evenodd" clip-rule="evenodd" d="M311.232 20.2301L312.545 19.452H313.567L312.083 20.2301H311.232ZM311.666 20.119H312.03L313.09 19.5632H312.604L311.666 20.119Z" fill="black"/>
</svg>
