<?xml version="1.0" encoding="UTF-8"?>
<!DOCTYPE svg PUBLIC "-//W3C//DTD SVG 1.1//EN" "http://www.w3.org/Graphics/SVG/1.1/DTD/svg11.dtd">
<svg xmlns="http://www.w3.org/2000/svg" version="1.1" width="162px" height="165px" style="shape-rendering:geometricPrecision; text-rendering:geometricPrecision; image-rendering:optimizeQuality; fill-rule:evenodd; clip-rule:evenodd" xmlns:xlink="http://www.w3.org/1999/xlink">
<g><path style="opacity:0.983" fill="#e74e0e" d="M 83.5,83.5 C 83.5,84.1667 83.5,84.8333 83.5,85.5C 74.8038,90.0189 66.4705,95.1855 58.5,101C 56.6354,102.301 54.6354,102.635 52.5,102C 44.3022,96.3036 35.9689,90.8036 27.5,85.5C 26.3339,71.5119 26.1672,57.5119 27,43.5C 45.4148,31.3755 63.9148,19.3755 82.5,7.5C 105.167,22.1667 127.833,36.8333 150.5,51.5C 150.833,57 151.167,62.5 151.5,68C 151.648,73.9997 151.148,79.833 150,85.5C 127.585,70.7089 105.085,56.0422 82.5,41.5C 71.4545,48.0161 60.7878,55.0161 50.5,62.5C 61.0123,70.2568 72.0123,77.2568 83.5,83.5 Z"/></g>
<g><path style="opacity:0.983" fill="#e74e0e" d="M 83.5,85.5 C 83.5,84.8333 83.5,84.1667 83.5,83.5C 91.8818,76.9719 100.715,70.9719 110,65.5C 119.081,71.6244 128.248,77.6244 137.5,83.5C 138.666,97.4881 138.833,111.488 138,125.5C 119.365,137.303 100.865,149.303 82.5,161.5C 59.8333,146.833 37.1667,132.167 14.5,117.5C 13.3342,106.181 13.1675,94.848 14,83.5C 36.6991,98.3638 59.5324,113.031 82.5,127.5C 93.1667,120.5 103.833,113.5 114.5,106.5C 103.965,99.7374 93.6316,92.7374 83.5,85.5 Z"/></g>
</svg>
