<?xml version="1.0" encoding="UTF-8"?>
<!DOCTYPE svg PUBLIC "-//W3C//DTD SVG 1.1//EN" "http://www.w3.org/Graphics/SVG/1.1/DTD/svg11.dtd">
<svg xmlns="http://www.w3.org/2000/svg" version="1.1" width="660px" height="200px" style="shape-rendering:geometricPrecision; text-rendering:geometricPrecision; image-rendering:optimizeQuality; fill-rule:evenodd; clip-rule:evenodd" xmlns:xlink="http://www.w3.org/1999/xlink">
<g><path style="opacity:0.621" fill="#323232" d="M 457.5,76.5 C 465.261,76.2591 467.595,79.7591 464.5,87C 460.833,87.6667 457.167,87.6667 453.5,87C 452.549,83.9433 452.216,80.7766 452.5,77.5C 454.415,77.7845 456.081,77.4511 457.5,76.5 Z"/></g>
<g><path style="opacity:0.933" fill="#323232" d="M 328.5,77.5 C 334.167,77.5 339.833,77.5 345.5,77.5C 345.5,80.1667 345.5,82.8333 345.5,85.5C 342.059,85.3011 338.726,85.8011 335.5,87C 334.663,88.0113 334.33,89.1779 334.5,90.5C 339.5,90.5 344.5,90.5 349.5,90.5C 348.7,85.8736 350.034,82.0403 353.5,79C 360.05,77.5796 366.716,77.0796 373.5,77.5C 373.5,80.1667 373.5,82.8333 373.5,85.5C 370.272,85.2994 367.105,85.6328 364,86.5C 362.699,87.0981 361.865,88.0981 361.5,89.5C 365.445,90.4909 369.445,90.8242 373.5,90.5C 373.337,92.8568 373.503,95.1902 374,97.5C 375.598,92.4995 379.098,89.9995 384.5,90C 392.888,89.1695 401.221,89.5028 409.5,91C 412.663,92.4798 414.496,94.9798 415,98.5C 415.499,102.152 415.665,105.818 415.5,109.5C 405.478,109.168 395.478,109.501 385.5,110.5C 387.424,113.944 390.424,115.277 394.5,114.5C 401.241,112.361 408.241,111.361 415.5,111.5C 415.608,116.021 413.608,119.188 409.5,121C 399.167,123 388.833,123 378.5,121C 376.622,119.457 375.122,117.624 374,115.5C 373.501,110.177 373.334,104.844 373.5,99.5C 369.5,99.5 365.5,99.5 361.5,99.5C 361.5,106.833 361.5,114.167 361.5,121.5C 357.5,121.5 353.5,121.5 349.5,121.5C 349.5,114.167 349.5,106.833 349.5,99.5C 344.5,99.5 339.5,99.5 334.5,99.5C 334.5,106.833 334.5,114.167 334.5,121.5C 330.167,121.5 325.833,121.5 321.5,121.5C 321.5,114.167 321.5,106.833 321.5,99.5C 319.5,99.5 317.5,99.5 315.5,99.5C 315.5,102.833 315.5,106.167 315.5,109.5C 305.478,109.168 295.478,109.501 285.5,110.5C 287.424,113.944 290.424,115.277 294.5,114.5C 301.241,112.361 308.241,111.361 315.5,111.5C 315.135,115.737 313.135,118.904 309.5,121C 299.167,123 288.833,123 278.5,121C 274.074,117.212 272.408,112.378 273.5,106.5C 271.475,96.9642 275.142,91.4642 284.5,90C 291.167,89.3333 297.833,89.3333 304.5,90C 310.404,89.9074 313.904,92.7407 315,98.5C 315.497,95.854 315.664,93.1873 315.5,90.5C 317.604,90.7989 319.604,90.4656 321.5,89.5C 321.807,84.207 324.14,80.207 328.5,77.5 Z M 291.5,97.5 C 295.665,97.1269 299.332,98.1269 302.5,100.5C 296.863,101.663 291.196,101.83 285.5,101C 287.257,99.2505 289.257,98.0838 291.5,97.5 Z M 391.5,97.5 C 393.857,97.3367 396.19,97.5034 398.5,98C 400.286,98.1962 401.619,99.0295 402.5,100.5C 396.863,101.663 391.196,101.83 385.5,101C 387.257,99.2505 389.257,98.0838 391.5,97.5 Z"/></g>
<g><path style="opacity:0.063" fill="#313131" d="M 474.5,77.5 C 475.831,84.4682 476.497,91.8016 476.5,99.5C 476.653,107.326 476.153,114.993 475,122.5C 474.5,107.504 474.333,92.5037 474.5,77.5 Z"/></g>
<g><path style="opacity:0.917" fill="#323232" d="M 154.5,89.5 C 162.561,89.1785 170.561,89.6785 178.5,91C 182.877,92.652 184.544,95.8187 183.5,100.5C 179.486,100.666 175.486,100.499 171.5,100C 166.333,96.9183 160.999,96.7516 155.5,99.5C 155.709,100.086 156.043,100.586 156.5,101C 164.909,101.093 173.243,101.76 181.5,103C 185.749,107.546 186.582,112.713 184,118.5C 183.097,119.701 181.931,120.535 180.5,121C 170.561,122.562 160.561,122.895 150.5,122C 144.613,120.947 141.946,117.447 142.5,111.5C 150.077,111.462 157.41,112.462 164.5,114.5C 166.833,114.333 169.167,114.167 171.5,114C 172.337,112.989 172.67,111.822 172.5,110.5C 165.159,110.666 157.826,110.5 150.5,110C 142.321,106.956 140.321,101.456 144.5,93.5C 147.606,91.336 150.939,90.0027 154.5,89.5 Z"/></g>
<g><path style="opacity:0.931" fill="#323232" d="M 229.5,77.5 C 233.833,77.5 238.167,77.5 242.5,77.5C 242.334,82.8437 242.501,88.1771 243,93.5C 246.585,90.4721 250.752,89.1387 255.5,89.5C 263.316,88.4875 268.816,91.4875 272,98.5C 272.5,106.159 272.666,113.826 272.5,121.5C 268.167,121.5 263.833,121.5 259.5,121.5C 259.666,114.825 259.5,108.158 259,101.5C 258.5,101 258,100.5 257.5,100C 253.5,99.3333 249.5,99.3333 245.5,100C 244.299,100.903 243.465,102.069 243,103.5C 242.501,109.491 242.334,115.491 242.5,121.5C 238.167,121.5 233.833,121.5 229.5,121.5C 229.665,118.482 229.498,115.482 229,112.5C 228.624,117.876 225.79,121.042 220.5,122C 211.091,122.917 201.758,122.584 192.5,121C 187.087,117.729 185.087,112.895 186.5,106.5C 184.871,97.2167 188.538,91.7167 197.5,90C 205.888,89.1695 214.221,89.5028 222.5,91C 226.205,92.6994 228.372,95.5328 229,99.5C 229.5,92.1742 229.666,84.8409 229.5,77.5 Z M 201.5,99.5 C 205.514,99.3345 209.514,99.5012 213.5,100C 218.249,103.112 223.582,104.279 229.5,103.5C 229.5,105.167 229.5,106.833 229.5,108.5C 225.116,108.174 220.783,108.508 216.5,109.5C 214.42,112.257 211.586,113.591 208,113.5C 198.103,112.492 195.936,107.825 201.5,99.5 Z"/></g>
<g><path style="opacity:0.938" fill="#323232" d="M 435.5,89.5 C 448.366,87.3681 454.032,92.7014 452.5,105.5C 448.774,105.823 445.107,105.489 441.5,104.5C 439.473,99.2006 435.806,98.034 430.5,101C 428.753,107.677 428.087,114.51 428.5,121.5C 424.5,121.5 420.5,121.5 416.5,121.5C 416.5,111.167 416.5,100.833 416.5,90.5C 420.5,90.5 424.5,90.5 428.5,90.5C 428.351,91.552 428.517,92.552 429,93.5C 431.013,91.7518 433.18,90.4185 435.5,89.5 Z"/></g>
<g><path style="opacity:0.563" fill="#303030" d="M 517.5,86.5 C 519.508,87.3007 520.008,88.634 519,90.5C 527.746,89.689 536.579,89.3556 545.5,89.5C 549.43,88.7564 550.763,90.0898 549.5,93.5C 547.477,91.8267 545.144,91.1601 542.5,91.5C 542.34,93.1992 542.506,94.8659 543,96.5C 543.725,97.0585 544.558,97.3918 545.5,97.5C 547.731,96.353 550.065,95.353 552.5,94.5C 553.136,92.2054 554.469,90.5387 556.5,89.5C 559.217,91.9089 561.217,94.9089 562.5,98.5C 562.167,98.8333 561.833,99.1667 561.5,99.5C 558.167,96.8333 554.833,96.8333 551.5,99.5C 547.5,99.5 543.5,99.5 539.5,99.5C 538.52,96.9135 538.187,94.2469 538.5,91.5C 537.167,91.5 535.833,91.5 534.5,91.5C 534.5,94.1667 534.5,96.8333 534.5,99.5C 533.5,99.5 532.5,99.5 531.5,99.5C 531.5,96.8333 531.5,94.1667 531.5,91.5C 528.145,91.8862 527.145,93.5528 528.5,96.5C 528.182,97.6473 527.516,98.4806 526.5,99C 512.677,98.5118 498.677,98.6785 484.5,99.5C 484.5,96.1667 484.5,92.8333 484.5,89.5C 485.5,89.5 486.5,89.5 487.5,89.5C 487.5,92.1667 487.5,94.8333 487.5,97.5C 489.527,97.6621 491.527,97.4955 493.5,97C 492.202,94.5008 492.536,92.1675 494.5,90C 501.406,90.4378 508.24,90.6044 515,90.5C 515.662,89.0161 516.496,87.6828 517.5,86.5 Z M 495.5,91.5 C 497.527,91.3379 499.527,91.5045 501.5,92C 502.963,96.4683 501.297,98.135 496.5,97C 495.594,95.3005 495.261,93.4672 495.5,91.5 Z M 507.5,91.5 C 513.697,91.3251 514.363,92.3251 509.5,94.5C 510.729,95.2811 512.062,95.7811 513.5,96C 507.865,98.937 505.865,97.437 507.5,91.5 Z M 520.5,91.5 C 522.288,91.2148 523.955,91.5481 525.5,92.5C 524.667,92.8333 523.833,93.1667 523,93.5C 521.624,93.3158 520.791,92.6491 520.5,91.5 Z M 555.5,93.5 C 556.756,93.4614 557.756,93.9614 558.5,95C 557.167,95.6667 555.833,95.6667 554.5,95C 555.056,94.6174 555.389,94.1174 555.5,93.5 Z M 520.5,95.5 C 522.527,95.3379 524.527,95.5045 526.5,96C 524.121,98.1422 522.121,97.9755 520.5,95.5 Z"/></g>
<g><path style="opacity:0.967" fill="#e84e0e" d="M 93.5,60.5 C 104.949,67.4426 116.283,74.6092 127.5,82C 128.642,88.0844 128.809,94.2511 128,100.5C 116.919,93.0424 105.752,85.709 94.5,78.5C 89.7505,81.6253 84.9172,84.6253 80,87.5C 79.3828,88.4491 79.5494,89.2825 80.5,90C 85.0002,93.0845 89.6669,95.9179 94.5,98.5C 98.8784,95.3113 103.545,92.6446 108.5,90.5C 112.962,92.9008 117.296,95.5674 121.5,98.5C 122.665,105.811 122.831,113.144 122,120.5C 112.667,126.5 103.333,132.5 94,138.5C 82.9189,131.042 71.7522,123.709 60.5,116.5C 59.3364,110.528 59.1697,104.528 60,98.5C 71.3661,106.031 82.8661,113.364 94.5,120.5C 99.672,117.415 104.672,114.081 109.5,110.5C 104.672,106.919 99.672,103.585 94.5,100.5C 89.7959,103.183 85.1293,105.85 80.5,108.5C 75.9553,105.975 71.4553,103.308 67,100.5C 66.3333,93.1667 66.3333,85.8333 67,78.5C 75.9857,72.6008 84.8191,66.6008 93.5,60.5 Z"/></g>
<g><path style="opacity:0.594" fill="#303030" d="M 484.5,102.5 C 487.518,102.335 490.518,102.502 493.5,103C 493.957,103.414 494.291,103.914 494.5,104.5C 492.234,105.314 489.9,105.814 487.5,106C 495.424,106.871 495.424,108.038 487.5,109.5C 489.833,110.167 492.167,110.833 494.5,111.5C 491.232,112.487 487.898,112.82 484.5,112.5C 484.5,109.167 484.5,105.833 484.5,102.5 Z"/></g>
<g><path style="opacity:0.686" fill="#323232" d="M 579.5,100.5 C 581.288,100.215 582.955,100.548 584.5,101.5C 584.167,102.167 583.833,102.833 583.5,103.5C 584.467,105.63 585.634,107.63 587,109.5C 587.495,107.527 587.662,105.527 587.5,103.5C 590.855,102.382 594.188,102.382 597.5,103.5C 598.484,106.428 598.817,109.428 598.5,112.5C 592.884,112.79 587.384,112.123 582,110.5C 578.924,111.694 575.757,112.361 572.5,112.5C 572.719,113.675 572.386,114.675 571.5,115.5C 568.278,113.082 564.611,111.416 560.5,110.5C 557.989,111.655 555.322,112.322 552.5,112.5C 552.662,110.473 552.495,108.473 552,106.5C 549,114.5 546,114.5 543,106.5C 542.808,108.577 542.308,110.577 541.5,112.5C 540.262,108.689 539.596,108.689 539.5,112.5C 536.15,112.665 532.817,112.498 529.5,112C 528.577,109.959 528.244,107.792 528.5,105.5C 527.167,105.5 525.833,105.5 524.5,105.5C 523.833,114.833 523.167,114.833 522.5,105.5C 521.167,105.5 519.833,105.5 518.5,105.5C 518.5,107.833 518.5,110.167 518.5,112.5C 512.943,112.929 507.61,112.263 502.5,110.5C 500.519,110.437 498.852,111.104 497.5,112.5C 497.466,109.03 498.8,105.864 501.5,103C 502.167,102.333 502.833,102.333 503.5,103C 504.667,104.833 505.833,106.667 507,108.5C 507.192,106.423 507.692,104.423 508.5,102.5C 509.086,102.709 509.586,103.043 510,103.5C 510.497,105.81 510.663,108.143 510.5,110.5C 512.5,110.5 514.5,110.5 516.5,110.5C 516.5,107.833 516.5,105.167 516.5,102.5C 522.568,102.845 528.568,102.845 534.5,102.5C 537.006,102.335 538.839,103.335 540,105.5C 540.483,104.552 540.649,103.552 540.5,102.5C 541.675,102.281 542.675,102.614 543.5,103.5C 544.604,105.389 545.937,107.055 547.5,108.5C 549.027,106.807 550.36,104.973 551.5,103C 552.448,102.517 553.448,102.351 554.5,102.5C 554.336,105.187 554.503,107.854 555,110.5C 556.106,107.274 557.939,104.607 560.5,102.5C 562.718,103.924 564.218,105.924 565,108.5C 564.946,105.809 566.113,103.976 568.5,103C 571.192,102.57 573.859,102.737 576.5,103.5C 576.719,104.675 576.386,105.675 575.5,106.5C 572.466,104.898 569.799,105.231 567.5,107.5C 569.692,110.999 572.359,111.333 575.5,108.5C 576.086,108.709 576.586,109.043 577,109.5C 578.039,107.254 579.206,105.087 580.5,103C 578.381,102.658 578.047,101.825 579.5,100.5 Z M 530.5,105.5 C 532.833,105.5 535.167,105.5 537.5,105.5C 537.5,107.167 537.5,108.833 537.5,110.5C 535.473,110.662 533.473,110.495 531.5,110C 530.62,108.644 530.286,107.144 530.5,105.5 Z M 581.5,105.5 C 584.481,108.122 584.148,108.789 580.5,107.5C 580.863,106.817 581.196,106.15 581.5,105.5 Z M 589.5,105.5 C 591.833,105.5 594.167,105.5 596.5,105.5C 596.5,107.167 596.5,108.833 596.5,110.5C 594.167,110.5 591.833,110.5 589.5,110.5C 589.5,108.833 589.5,107.167 589.5,105.5 Z M 501.5,106.5 C 502.376,106.369 503.043,106.702 503.5,107.5C 501.192,108.873 500.525,108.54 501.5,106.5 Z M 559.5,106.5 C 560.376,106.369 561.043,106.702 561.5,107.5C 559.192,108.873 558.525,108.54 559.5,106.5 Z"/></g>
</svg>
